<svg id="Capa_1" enable-background="new 0 0 512.12 512.12" height="512" viewBox="0 0 512.12 512.12" width="512" xmlns="http://www.w3.org/2000/svg"><g><path d="m116 426.06h40c5.523 0 10-4.477 10-10v-30h30c5.523 0 10-4.477 10-10v-40c0-5.523-4.477-10-10-10h-30v-30c0-5.523-4.477-10-10-10h-40c-5.523 0-10 4.477-10 10v30h-30c-5.523 0-10 4.477-10 10v40c0 5.523 4.477 10 10 10h30v30c0 5.523 4.477 10 10 10zm-30-60v-20h30c5.523 0 10-4.477 10-10v-30h20v30c0 5.523 4.477 10 10 10h30v20h-30c-5.523 0-10 4.477-10 10v30h-20v-30c0-5.523-4.477-10-10-10z"/><path d="m325.641 132.419c-1.396-1.396-3.174-2.348-5.11-2.734l-70.71-14.14c-3.279-.656-6.669.372-9.034 2.737l-8.787 8.786v-22.728c11.639-4.128 20-15.243 20-28.28v-46c0-16.542-13.458-30-30-30h-172c-16.542 0-30 13.458-30 30v46c0 13.036 8.361 24.152 20 28.28v27.578l-19.501 19.501c-13.219 13.219-20.499 30.795-20.499 49.491v281.15c0 16.542 13.458 30 30 30h60.999c5.523 0 10-4.477 10-10s-4.477-10-10-10h-60.999c-5.514 0-10-4.486-10-10v-256h169.919l5.705 28.53c.387 1.937 1.339 3.715 2.735 5.111l53.641 53.641v168.718c0 5.514-4.486 10-10 10h-60.999c-5.523 0-10 4.477-10 10s4.477 10 10 10h60.999c16.542 0 30-13.458 30-30v-148.718l109.909 109.909c1.953 1.953 4.512 2.929 7.071 2.929s5.119-.976 7.071-2.929l113.14-113.14c1.875-1.875 2.929-4.419 2.929-7.071s-1.054-5.196-2.929-7.071zm-135.272 36.279c-33.397-13.361-59.301-34.375-77.241-62.638h98.872v30c0 2.652 1.054 5.196 2.929 7.071l.504.504zm-150.369-138.638c0-5.514 4.486-10 10-10h13v36c0 5.523 4.477 10 10 10s10-4.477 10-10v-36h23v36c0 5.523 4.477 10 10 10s10-4.477 10-10v-36h20v36c0 5.523 4.477 10 10 10s10-4.477 10-10v-36h23v36c0 5.523 4.477 10 10 10s10-4.477 10-10v-36h13c5.514 0 10 4.486 10 10v46c0 5.514-4.486 10-10 10h-172c-5.514 0-10-4.486-10-10zm-20 176v-5.15c0-13.354 5.2-25.908 14.641-35.349l22.43-22.43c1.875-1.875 2.929-4.419 2.929-7.071v-30h29.949c20.099 37.082 51.047 64.243 92.145 80.869l3.826 19.131zm368.98 215.978-174.337-174.338-6.716-33.6s0-.001 0-.002l-3.914-19.567c10.541 3.094 20.328 5.243 28.483 6.799 1.071 5.968 3.921 11.567 8.294 15.941 11.696 11.695 30.726 11.696 42.423 0 11.696-11.696 11.696-30.727 0-42.423-11.696-11.695-30.727-11.695-42.423 0-2.023 2.023-3.704 4.297-5.054 6.742-7.266-1.391-15.477-3.204-24.258-5.714l39.672-39.671 62.491 12.497 174.337 174.338zm-134.049-233.047c3.907-3.908 10.23-3.908 14.138 0 3.908 3.907 3.908 10.23 0 14.138-3.906 3.907-10.23 3.908-14.138 0-3.775-3.775-4.019-10.12 0-14.138z"/><path d="m311.501 231.419c-3.905-3.905-10.237-3.905-14.143 0s-3.905 10.237 0 14.143l7.633 7.633c-14.928 20.629-13.019 43.551-.565 56.004 17.156 17.168 35.608 11.772 55.343-1.226l28.665 28.665c-10.137 6.155-21.42 6.865-27.444.842-3.905-3.905-10.237-3.905-14.142 0s-3.905 10.237 0 14.142c14.602 14.602 38.639 11.903 55.991-.579l7.649 7.649c3.905 3.905 10.237 3.905 14.143 0 3.905-3.905 3.905-10.237 0-14.143l-7.638-7.638c13.49-18.747 14.227-42.342.566-56.004-17.204-17.193-35.698-11.721-55.335 1.235l-28.666-28.666c4.08-2.478 8.424-4.132 12.638-4.734 3.566-.509 10.23-.682 14.801 3.889 3.906 3.906 10.238 3.906 14.142 0 3.905-3.905 3.906-10.237 0-14.142-7.833-7.833-19.414-11.312-31.773-9.546-8.441 1.206-16.792 4.725-24.233 10.109zm7.07 63.64c-6.825-6.825-4.332-18.918.845-27.44l25.83 25.83c-13.143 8.049-19.584 8.705-26.675 1.61zm84.848-.008c6.023 6.023 5.313 17.307-.842 27.444l-25.832-25.832c13.13-8.055 19.572-8.71 26.674-1.612z"/><circle cx="136" cy="502.06" r="10"/></g></svg>